<svg xmlns="http://www.w3.org/2000/svg" viewBox="0 0 512 512" style="enable-background:new 0 0 512 512"><path d="M469.5 470.9l-116.6-139c67.6-66.7 73.8-175.6 11.7-249.6-65.3-78-181.8-88.2-259.7-22.9C67.2 91.1 44 135.5 39.7 184.6c-4.3 49.1 10.7 96.9 42.4 134.6 31.6 37.7 76.1 60.9 125.1 65.2 5.5.5 11 .7 16.4.7 38.2 0 75.1-11.8 106.3-33.9l116.6 139.1c3 3.5 7.2 5.4 11.5 5.4 3.4 0 6.8-1.2 9.6-3.5 6.4-5.5 7.3-14.9 1.9-21.3zm-364.4-171C78.6 268.3 66 228.3 69.6 187.2s23-78.3 54.6-104.8c28.9-24.2 64.1-36 99.1-36 44.1 0 87.9 18.8 118.4 55.1 54.7 65.2 46.1 162.8-19.1 217.5-31.6 26.5-71.6 39.1-112.7 35.5-41.1-3.6-78.3-23-104.8-54.6z" style="fill:#1d1d1b"/></svg>