<?xml version="1.0" encoding="utf-8"?>
<!-- Generator: Adobe Illustrator 21.0.2, SVG Export Plug-In . SVG Version: 6.00 Build 0)  -->
<svg version="1.1" id="Layer_1" xmlns="http://www.w3.org/2000/svg" xmlns:xlink="http://www.w3.org/1999/xlink" x="0px" y="0px"
	 viewBox="0 0 512 512" enable-background="new 0 0 512 512" xml:space="preserve" style="fill: #69AE75;">
<path d="M401.2,277.6c-8.4-2.8-17.4,1.8-20.2,10.2c-18,54.2-68,90.8-124.9,91.7c-57-0.9-107-37.6-124.9-91.7
	c-2.8-8.4-11.8-12.9-20.2-10.2c-8.4,2.8-12.9,11.8-10.2,20.2c21.9,66,82.1,111,151.2,113.6c0.6,0.1,1.3,0.1,1.9,0.1
	c0.8,0,1.5,0,2.2,0c0.7,0,1.5,0,2.2,0c0.6,0,1.3,0,1.9-0.1c69-2.6,129.3-47.6,151.2-113.6C414.1,289.4,409.6,280.4,401.2,277.6z"/>
<path d="M431.8,80.2C384.8,33.3,322.4,7.4,256,7.4c-66.4,0-128.8,25.9-175.8,72.8S7.4,189.6,7.4,256c0,66.4,25.9,128.8,72.8,175.8
	c46.9,46.9,109.4,72.8,175.8,72.8c66.4,0,128.8-25.9,175.8-72.8c46.9-46.9,72.8-109.4,72.8-175.8
	C504.6,189.6,478.7,127.2,431.8,80.2z M409.1,409.1c-40.9,40.9-95.3,63.4-153.1,63.4c-57.8,0-112.2-22.5-153.1-63.4
	C62,368.2,39.4,313.8,39.4,256S62,143.8,102.9,102.9S198.2,39.4,256,39.4S368.2,62,409.1,102.9c40.9,40.9,63.4,95.3,63.4,153.1
	C472.6,313.8,450,368.2,409.1,409.1z"/>
<circle cx="335.3" cy="178" r="27.3"/>
<circle cx="176.7" cy="178" r="27.3"/>
</svg>
